<?xml version="1.0" encoding="UTF-8"?>
<svg width="22px" height="22px" viewBox="0 0 22 22" version="1.1" xmlns="http://www.w3.org/2000/svg" xmlns:xlink="http://www.w3.org/1999/xlink">
    <!-- Generator: Sketch 48.2 (47327) - http://www.bohemiancoding.com/sketch -->
    <title>earth copy</title>
    <desc>Created with Sketch.</desc>
    <defs></defs>
    <g id="Content-Web-Page" stroke="none" stroke-width="1" fill="none" fill-rule="evenodd" transform="translate(-300.000000, -754.000000)">
        <g id="Content-Type" transform="translate(280.000000, 735.000000)" fill="#4A4A4A">
            <g id="Web-Page">
                <path d="M31,19 C24.9245505,19 20,23.9253893 20,29.9994597 C20,36.0746107 24.9245505,41 31,41 C37.0754495,41 42,36.0746107 42,29.9994597 C42,23.9253893 37.0754495,19 31,19 L31,19 Z M27.5008351,21.7436515 C27.6564496,21.6777347 27.8455644,21.7436515 27.9114844,21.9003389 C28.0465665,22.2223587 27.7666765,22.6113758 26.5855192,23.5309691 C25.0920523,24.6926175 24.8348561,25.671644 25.124472,27.588634 C25.4130072,29.5045434 26.5444543,29.5618154 27.2533648,31.0109043 C27.9622753,32.4599931 27.3171235,33.6918807 28.3999411,36.1826711 C28.8743492,37.176826 29.4849199,37.7981728 29.7356322,38.2974115 C29.8707142,38.5654011 29.6405344,38.8668893 29.3465959,38.8117786 C25.1817467,38.0348249 22.0262305,34.3899504 22.0262305,29.9994597 C22.0262305,26.2865072 24.284802,23.1084533 27.5008351,21.7436515 L27.5008351,21.7436515 Z M31.8277827,37.8932659 C31.7618627,37.1368437 32.3497397,35.5969841 33.4995579,34.3996758 C35.5776599,32.2568397 33.9923372,31.1470603 31.9823165,30.8747483 C29.9722959,30.6024363 28.5782493,31.4053244 28.0843894,30.0664571 C27.5905295,28.7286704 28.478829,28.1537895 28.7770901,28.0576158 C29.0753512,27.9614421 29.6491797,27.6469866 30.5785441,28.7621691 C30.9675803,29.1501056 31.4992632,29.2149418 31.4862953,28.7265092 C31.4744081,28.2391571 30.8681599,27.2547276 31.5262796,26.4799352 C32.1833186,25.7062233 33.6865114,25.3182868 33.6195108,24.1696056 C33.5514294,23.0209244 32.5766775,22.540056 31.4171333,22.8426249 C30.2586698,23.1441132 29.6329698,23.3699592 29.3044503,22.3768849 C29.2309657,22.1553613 29.1693683,21.93816 29.1174968,21.733926 C29.0515768,21.4724201 29.2201592,21.2065917 29.4870812,21.1601257 C29.9787798,21.0736775 30.4834463,21.0261309 31,21.0261309 C34.6493762,21.0261309 37.7897632,23.2046269 39.1924551,26.3318925 C39.6647018,27.3865612 39.0649376,28.6249325 37.9388938,28.8842772 C37.9324099,28.8864384 37.9248453,28.887519 37.9162,28.8896802 C36.5405246,29.200894 35.8834856,29.750921 37.4428726,31.0735793 C37.815699,31.3210374 38.2177031,31.5630925 38.5926908,31.8472911 C39.2183908,32.3216759 39.4269575,33.1753524 39.0865507,33.8831475 C37.919442,36.308021 35.6932901,38.1234344 33.0067787,38.737217 C32.4469987,38.8647281 31.8839768,38.464905 31.8277827,37.8932659 L31.8277827,37.8932659 Z" id="earth-copy"></path>
            </g>
        </g>
    </g>
</svg>