<?xml version="1.0" encoding="UTF-8"?>
<svg width="17px" height="22px" viewBox="0 0 17 22" version="1.1" xmlns="http://www.w3.org/2000/svg" xmlns:xlink="http://www.w3.org/1999/xlink">
    <!-- Generator: Sketch 48.2 (47327) - http://www.bohemiancoding.com/sketch -->
    <title>text-doc</title>
    <desc>Created with Sketch.</desc>
    <defs></defs>
    <g id="Content-Web-Page" stroke="none" stroke-width="1" fill="none" fill-rule="evenodd" transform="translate(-302.000000, -964.000000)">
        <g id="Content-Type" transform="translate(280.000000, 735.000000)" fill="#4A4A4A">
            <g id="Survey" transform="translate(0.000000, 210.000000)">
                <path d="M23.4009384,19 C22.6268834,19 22,19.6251782 22,20.3971277 L22,39.6017519 C22,40.3737014 22.6268834,41 23.4009384,41 L37.5979381,41 C38.3719931,41 39,40.3737014 39,39.6017519 L39,26.7127725 C39,26.4125076 38.8797912,26.1245671 38.6663362,25.9116928 L32.121134,19.3842942 C31.8739757,19.1378081 31.5403119,19 31.1909199,19 L23.4009384,19 Z M24.5579004,38.8 C24.3187229,38.8 24.125,38.6064984 24.125,38.3675941 L24.125,21.6324059 C24.125,21.3935016 24.3187229,21.2 24.5579004,21.2 L30.6617965,21.2 C31.2602814,21.2 31.7451299,21.6842946 31.7440476,22.2820957 L31.7418831,25.8699834 C31.7418831,26.1694245 31.9853896,26.4126528 32.2851732,26.4115718 L36.0048701,26.3953566 C36.4853896,26.3931945 36.875,26.7801978 36.875,27.2601683 L36.875,38.3675941 C36.875,38.6064984 36.6812771,38.8 36.4420996,38.8 L24.5579004,38.8 Z M33.8981412,31.1 C34.3683585,31.1 34.75,30.5909091 34.75,29.9895105 C34.75,29.3881119 34.3683585,28.9 33.8981412,28.9 L27.1007676,28.9 C26.6305503,28.9 26.2500023,29.4104895 26.2500023,30.0104895 C26.2489088,30.6118881 26.6305503,31.1 27.1007676,31.1 L33.8981412,31.1 Z M30.4999973,25.5895105 C30.5012793,24.9881119 30.053844,24.5 29.5025626,24.5 L27.2474374,24.5 C26.696156,24.5 26.2500027,25.0090909 26.2500027,25.6104895 C26.2487207,26.2118881 26.696156,26.7 27.2474374,26.7 L29.5025626,26.7 C30.0525619,26.7 30.4999973,26.1909091 30.4999973,25.5895105 Z M33.6187002,35.5 C34.2431661,35.5 34.7485478,34.9895105 34.75,34.3895105 C34.75,33.7867133 34.2431661,33.3 33.6187002,33.3 L27.3798506,33.3 C26.7553848,33.3 26.2500031,33.8090909 26.2500031,34.4104895 C26.2485509,35.0118881 26.7553848,35.5 27.3798506,35.5 L33.6187002,35.5 Z" id="text-doc"></path>
            </g>
        </g>
    </g>
</svg>