<?xml version="1.0" encoding="UTF-8"?>
<svg width="9px" height="10px" viewBox="0 0 9 10" version="1.1" xmlns="http://www.w3.org/2000/svg" xmlns:xlink="http://www.w3.org/1999/xlink">
    <!-- Generator: Sketch 48.2 (47327) - http://www.bohemiancoding.com/sketch -->
    <title>traffic</title>
    <desc>Created with Sketch.</desc>
    <defs></defs>
    <g id="Content-Web-Page" stroke="none" stroke-width="1" fill="none" fill-rule="evenodd" transform="translate(-306.000000, -902.000000)">
        <g id="Content-Type" transform="translate(280.000000, 735.000000)" fill="#4A4A4A">
            <g id="External-Icon" transform="translate(0.000000, 140.000000)">
                <g id="API-Icon" transform="translate(20.000000, 19.000000)">
                    <path d="M11.8161504,8.26953815 L11.8161504,9.08837213 C11.8161504,9.28996197 11.6512388,9.45362897 11.448116,9.45362897 L6.39367615,9.45362897 C6.17647552,9.45362897 6,9.62827363 6,9.84433403 L6,11.1441893 C6,11.3602497 6.17647552,11.5353934 6.39367615,11.5353934 L11.448116,11.5353934 C11.6512388,11.5353934 11.8161504,11.6985614 11.8161504,11.9001512 L11.8161504,12.7304619 C11.8161504,12.9584979 12.0841317,13.0832441 12.2601045,12.9370415 L14.8680204,10.7794315 C15.0439932,10.6342269 15.0439932,10.3657731 14.8680204,10.2205685 L12.2601045,8.06295846 C12.0841317,7.91675592 11.8161504,8.04150211 11.8161504,8.26953815 L11.8161504,8.26953815 L11.8161504,8.26953815 Z M9.184101,13.2695231 L9.184101,14.0888103 C9.184101,14.2903889 9.3490126,14.4535478 9.55213542,14.4535478 L14.6060725,14.4535478 C14.8237759,14.4535478 14.9997486,14.6286817 14.9997486,14.84473 L14.9997486,16.1440137 C14.9997486,16.3600621 14.8237759,16.5351959 14.6060725,16.5351959 L9.55213542,16.5351959 C9.3490126,16.5351959 9.184101,16.6983548 9.184101,16.8999334 L9.184101,17.7306966 C9.184101,17.9587199 8.91611966,18.0829602 8.73964414,17.9372648 L6.13172816,15.7792762 C5.95625821,15.6340798 5.95625821,15.3661399 6.13172816,15.2204445 L8.73964414,13.0629549 C8.91611966,12.9167606 9.184101,13.0414998 9.184101,13.2695231 L9.184101,13.2695231 L9.184101,13.2695231 Z" id="traffic"></path>
                </g>
            </g>
        </g>
    </g>
</svg>