<?xml version="1.0" encoding="UTF-8"?>
<svg width="22px" height="22px" viewBox="0 0 22 22" version="1.1" xmlns="http://www.w3.org/2000/svg" xmlns:xlink="http://www.w3.org/1999/xlink">
    <!-- Generator: sketchtool 49.3 (51167) - http://www.bohemiancoding.com/sketch -->
    <title>269707B3-D43C-434E-B5E4-13306CDB662A</title>
    <desc>Created with sketchtool.</desc>
    <defs></defs>
    <g id="CMS" stroke="none" stroke-width="1" fill="none" fill-rule="evenodd">
        <g id="Video_Content_Form_Error" transform="translate(-299.000000, -1036.000000)" fill="#4A4A4A">
            <g id="Content-Type" transform="translate(280.000000, 691.000000)">
                <g id="HTML-Copy" transform="translate(0.000000, 326.000000)">
                    <path d="M30,19 C23.9245108,19 19,23.92539 19,29.9994336 C19,36.07461 23.9245108,41 30,41 C36.0754892,41 41,36.07461 41,29.9994336 C41,23.92539 36.0754892,19 30,19 L30,19 L30,19 Z M30.0263775,38.8 C25.1815332,38.8 21.2539,34.8735119 21.2539,30.0263775 C21.2539,25.1826782 25.1815332,21.2539 30.0263775,21.2539 C34.8723668,21.2539 38.8,25.1826782 38.8,30.0263775 C38.8,34.8735119 34.8723668,38.8 30.0263775,38.8 L30.0263775,38.8 Z M31.816925,34.2158325 L31.816925,26.0681325 C31.816925,25.6732325 31.318625,25.4565325 30.988625,25.7073325 L25.884625,29.5870325 C25.505125,29.8763325 25.505125,30.4120325 25.884625,30.7013325 L30.988625,34.5766325 C31.318625,34.8274325 31.816925,34.6107325 31.816925,34.2158325 L31.816925,34.2158325 Z" id="caret-o-circle-right" transform="translate(30.000000, 30.000000) scale(-1, 1) translate(-30.000000, -30.000000) "></path>
                </g>
            </g>
        </g>
    </g>
</svg>