<?xml version="1.0" encoding="UTF-8"?>
<svg width="22px" height="22px" viewBox="0 0 22 22" version="1.1" xmlns="http://www.w3.org/2000/svg" xmlns:xlink="http://www.w3.org/1999/xlink">
    <!-- Generator: Sketch 48.2 (47327) - http://www.bohemiancoding.com/sketch -->
    <title>window</title>
    <desc>Created with Sketch.</desc>
    <defs></defs>
    <g id="Content-Web-Page" stroke="none" stroke-width="1" fill="none" fill-rule="evenodd" transform="translate(-300.000000, -894.000000)">
        <g id="Content-Type" transform="translate(280.000000, 735.000000)" fill="#4A4A4A">
            <g id="External-Icon" transform="translate(0.000000, 140.000000)">
                <g id="API-Icon" transform="translate(20.000000, 19.000000)">
                    <path d="M16.5671923,22 L9,21.9999997 L1.38362301,22 C0.618885504,22 0,21.380129 0,20.616377 L0,1.38460849 C0,0.619870991 0.618885504,0 1.38362301,0 L20.6153915,0 C21.380129,0 22,0.619870991 22,1.38460849 L22,20.616377 C22,21.380129 21.380129,22 20.6153915,22 L16.5671923,22 Z M2.68226121,20.0427343 L19.3177388,20.0427343 C19.6949318,20.0427343 20,19.7346165 20,19.3558476 L20,6.72962099 C20,6.35085203 19.6949318,6.04273428 19.3177388,6.04273428 L2.68226121,6.04273428 C2.30506823,6.04273428 2,6.35085203 2,6.72962099 L2,19.3558476 C2,19.7346165 2.30506823,20.0427343 2.68226121,20.0427343 Z M11,4 C10.4468571,4 10,3.55314286 10,3 C10,2.448 10.4468571,2 11,2 C11.552,2 12,2.448 12,3 C12,3.55314286 11.552,4 11,4 L11,4 Z M19,4 C18.4468571,4 18,3.55314286 18,3 C18,2.448 18.4468571,2 19,2 C19.552,2 20,2.448 20,3 C20,3.55314286 19.552,4 19,4 L19,4 Z M15,4 C14.4468571,4 14,3.55314286 14,3 C14,2.448 14.4468571,2 15,2 C15.552,2 16,2.448 16,3 C16,3.55314286 15.552,4 15,4 L15,4 Z" id="window"></path>
                </g>
            </g>
        </g>
    </g>
</svg>